<svg id="bold" enable-background="new 0 0 24 24" height="512" viewBox="0 0 24 24" width="512" xmlns="http://www.w3.org/2000/svg"><path d="m23.522 10.399-2.522-2.354v-6.045c0-.552-.448-1-1-1h-3c-.552 0-1 .448-1 1v1.368l-3.317-3.099c-.385-.358-.981-.359-1.365 0l-10.865 10.154c-.292.292-.453.675-.453 1.077 0 .827.673 1.5 1.5 1.5h1.5v8.5c0 1.378 1.122 2.5 2.5 2.5h13c1.378 0 2.5-1.122 2.5-2.5v-8.5h1.5c.827 0 1.5-.673 1.5-1.5 0-.402-.161-.785-.478-1.101zm-7.655 2.778-4.5 6.5c-.457.661-1.503.232-1.354-.565l.583-3.112h-1.846c-.603 0-.96-.681-.617-1.177l4.5-6.5c.461-.664 1.501-.223 1.354.565l-.583 3.112h1.846c.603 0 .96.681.617 1.177z"/></svg>