<svg id="Capa_1" enable-background="new 0 0 510 510" height="512" viewBox="0 0 510 510" width="512" xmlns="http://www.w3.org/2000/svg"><g><path d="m90 510h105v-150h120v150h105v-390h-330zm240-330h30v30h-30zm0 60h30v30h-30zm0 60h30v30h-30zm-60-120h30v30h-30zm0 60h30v30h-30zm0 60h30v30h-30zm-60-120h30v30h-30zm0 60h30v30h-30zm0 60h30v30h-30zm-60-120h30v30h-30zm0 60h30v30h-30zm0 60h30v30h-30z"/><path d="m225 390h60v120h-60z"/><path d="m450 195h60v165h-60z"/><path d="m450 450h60v60h-60z"/><path d="m450 390h60v30h-60z"/><path d="m0 390h60v30h-60z"/><path d="m0 195h60v165h-60z"/><path d="m0 450h60v60h-60z"/><path d="m255 0c-55.814 0-102.848 38.301-116.203 90h232.406c-13.355-51.699-60.39-90-116.203-90z"/></g></svg>