<svg height="682pt" viewBox="-133 -21 682 682.66409" width="682pt" xmlns="http://www.w3.org/2000/svg"><path d="m376.859375 602.484375h-52.660156l-23.109375-98.507813-163.046875 98.507813h-113.839844c-10.359375 0-18.757813 8.398437-18.757813 18.757813 0 10.355468 8.398438 18.753906 18.757813 18.753906h352.65625c10.359375 0 18.757813-8.398438 18.757813-18.753906 0-10.359376-8.398438-18.757813-18.757813-18.757813zm0 0"/><path d="m93.992188 222.199219c3.6875 4.902343 9.3125 7.488281 15.007812 7.488281 3.925781 0 7.882812-1.230469 11.257812-3.769531 8.28125-6.226563 9.945313-17.988281 3.722657-26.265625-12.394531-16.484375-19.21875-36.914063-19.21875-57.535156 0-22.054688 7.699219-43.601563 21.679687-60.664063 6.5625-8.011719 5.390625-19.832031-2.625-26.398437-8.011718-6.5625-19.832031-5.390626-26.398437 2.621093-19.460938 23.75-30.175781 53.738281-30.175781 84.441407 0 28.707031 9.5 57.144531 26.75 80.082031zm0 0"/><path d="m53.925781 280.03125c4.160157 0 8.34375-1.375 11.820313-4.203125 8.042968-6.53125 9.257812-18.347656 2.726562-26.386719-24.585937-30.238281-38.121094-68.355468-38.121094-107.324218 0-40.769532 14.664063-80.226563 41.292969-111.105469 6.761719-7.84375 5.890625-19.6875-1.957031-26.457031-7.84375-6.761719-19.6875-5.886719-26.457031 1.953124-32.5 37.6875-50.398438 85.847657-50.398438 135.613282 0 47.558594 16.523438 94.078125 46.527344 130.988281 3.707031 4.558594 9.113281 6.921875 14.566406 6.921875zm0 0"/><path d="m296.25 142.117188c0 20.621093-6.820312 41.054687-19.21875 57.535156-6.226562 8.28125-4.5625 20.039062 3.71875 26.265625 3.375 2.539062 7.335938 3.769531 11.261719 3.769531 5.691406 0 11.316406-2.585938 15.003906-7.488281 17.25-22.9375 26.753906-51.378907 26.753906-80.082031 0-30.703126-10.714843-60.691407-30.175781-84.441407-6.566406-8.011719-18.382812-9.183593-26.402344-2.621093-8.007812 6.566406-9.183594 18.382812-2.617187 26.394531 13.980469 17.070312 21.675781 38.613281 21.675781 60.667969zm0 0"/><path d="m370.65625 142.117188c0 38.96875-13.535156 77.085937-38.117188 107.324218-6.539062 8.039063-5.316406 19.855469 2.722657 26.386719 3.476562 2.828125 7.660156 4.203125 11.820312 4.203125 5.449219 0 10.859375-2.367188 14.566407-6.925781 30.003906-36.90625 46.527343-83.425781 46.527343-130.988281 0-49.765626-17.898437-97.921876-50.398437-135.609376-6.769532-7.847656-18.613282-8.71875-26.460938-1.953124-7.839844 6.761718-8.714844 18.609374-1.953125 26.457031 26.632813 30.878906 41.292969 70.335937 41.292969 111.105469zm0 0"/><path d="m78.621094 594.546875 175.757812-106.191406-136.464844-61.28125zm0 0"/><path d="m291.703125 463.996094-25.195313-107.402344-98.609374 51.804688zm0 0"/><path d="m200.476562 200.949219c32.441407 0 58.835938-26.390625 58.835938-58.832031 0-32.4375-26.394531-58.828126-58.835938-58.828126-32.433593 0-58.828124 26.390626-58.828124 58.828126 0 32.441406 26.394531 58.832031 58.828124 58.832031zm0 0"/><path d="m237.09375 231.21875c-11.296875 4.660156-23.65625 7.246094-36.617188 7.246094-12.957031 0-25.316406-2.585938-36.609374-7.246094l-36.640626 156.171875 130.429688-68.523437zm0 0"/></svg>