<svg height="512pt" viewBox="0 0 512 512" width="512pt" xmlns="http://www.w3.org/2000/svg"><path d="m346 433.054688h62v78.9375h-62zm0 0"/><path d="m497 255.074219h-240c-8.285156 0-15 6.714843-15 15v226.917969c0 8.285156 6.714844 15 15 15h59v-93.9375c0-8.285157 6.714844-15 15-15h92c8.285156 0 15 6.714843 15 15v93.9375h59c8.285156 0 15-6.714844 15-15v-226.917969c0-8.285157-6.714844-15-15-15zm-60 119.980469h-120.003906c-8.285156 0-15-6.714844-15-15 0-8.285157 6.714844-15 15-15h120.003906c8.285156 0 15 6.714843 15 15 0 8.285156-6.714844 15-15 15zm0-60h-120.003906c-8.285156 0-15-6.714844-15-15 0-8.285157 6.714844-15 15-15h120.003906c8.285156 0 15 6.714843 15 15 0 8.285156-6.714844 15-15 15zm0 0"/><path d="m0 314.992188v182c0 8.285156 6.714844 15 15 15h197v-212h-197c-8.285156 0-15 6.714843-15 15zm136 46h30c8.285156 0 15 6.714843 15 15 0 8.285156-6.714844 15-15 15h-30c-8.285156 0-15-6.714844-15-15 0-8.285157 6.714844-15 15-15zm0 60h30c8.285156 0 15 6.714843 15 15 0 8.285156-6.714844 15-15 15h-30c-8.285156 0-15-6.714844-15-15 0-8.285157 6.714844-15 15-15zm-90-60h30c8.285156 0 15 6.714843 15 15 0 8.285156-6.714844 15-15 15h-30c-8.285156 0-15-6.714844-15-15 0-8.285157 6.714844-15 15-15zm0 60h30c8.285156 0 15 6.714843 15 15 0 8.285156-6.714844 15-15 15h-30c-8.285156 0-15-6.714844-15-15 0-8.285157 6.714844-15 15-15zm0 0"/><path d="m412.765625 196.070312c-27.457031-.984374-53.519531-10.6875-74.765625-27.609374v56.613281h107.066406l-21.730468-29.066407c-1.984376.09375-3.976563.144532-5.972657.144532-1.523437 0-3.070312-.027344-4.597656-.082032zm0 0"/><path d="m121 181.414062v88.578126h30v-88.578126c17.460938-6.195312 30-22.867187 30-42.421874 0-24.8125-20.1875-45-45-45s-45 20.1875-45 45c0 19.554687 12.539062 36.226562 30 42.421874zm0 0"/><path d="m54.933594 193.066406c2.183594 0 4.402344-.476562 6.5-1.488281 7.464844-3.597656 10.597656-12.5625 7.003906-20.023437-4.867188-10.097657-7.4375-21.355469-7.4375-32.5625 0-9.28125 1.695312-18.375 5.039062-27.03125 2.984376-7.726563-.859374-16.410157-8.585937-19.398438-7.726563-2.984375-16.410156.859375-19.394531 8.585938-4.683594 12.121093-7.058594 24.851562-7.058594 37.84375 0 15.6875 3.601562 31.449218 10.410156 45.582031 2.585938 5.363281 7.941406 8.492187 13.523438 8.492187zm0 0"/><path d="m214.046875 92.5625c-7.730469 2.988281-11.574219 11.671875-8.585937 19.398438 3.34375 8.660156 5.039062 17.75 5.039062 27.03125 0 11.207031-2.570312 22.464843-7.4375 32.558593-3.59375 7.464844-.460938 16.429688 7.003906 20.027344 2.097656 1.007813 4.316406 1.488281 6.5 1.488281 5.582032 0 10.9375-3.128906 13.523438-8.492187 6.808594-14.132813 10.410156-29.894531 10.410156-45.582031 0-12.992188-2.375-25.722657-7.058594-37.84375-2.984375-7.726563-11.671875-11.570313-19.394531-8.585938zm0 0"/><path d="m481.769531 27.601562c2.316407-5.605468 1.03125-12.050781-3.253906-16.339843-4.289063-4.289063-10.738281-5.570313-16.339844-3.253907l-35.964843 14.871094 40.6875 40.6875zm0 0"/><path d="m348.402344 137.597656c17.488281 17.488282 40.722656 27.605469 65.425781 28.492188 1.183594.039062 2.359375.0625 3.535156.0625 23.308594 0 45.703125-8.261719 63.40625-23.464844 3.167969-2.71875 5.0625-6.636719 5.21875-10.808594.160157-4.171875-1.429687-8.222656-4.382812-11.175781l-116.304688-116.308594c-2.953125-2.953125-7.003906-4.546875-11.179687-4.3828122-4.171875.1601562-8.089844 2.0468752-10.808594 5.2187502-15.96875 18.597656-24.277344 42.371093-23.398438 66.941406.882813 24.703125 11 47.941406 28.488282 65.425781zm0 0"/></svg>