<?xml version="1.0" encoding="UTF-8" standalone="no"?>
<svg
   xmlns:dc="http://purl.org/dc/elements/1.1/"
   xmlns:cc="http://creativecommons.org/ns#"
   xmlns:rdf="http://www.w3.org/1999/02/22-rdf-syntax-ns#"
   xmlns:svg="http://www.w3.org/2000/svg"
   xmlns="http://www.w3.org/2000/svg"
   xmlns:sodipodi="http://sodipodi.sourceforge.net/DTD/sodipodi-0.dtd"
   xmlns:inkscape="http://www.inkscape.org/namespaces/inkscape"
   height="512pt"
   viewBox="0 0 512 512"
   width="512pt"
   version="1.1"
   id="svg4571"
   sodipodi:docname="007-storage-tank-blue.svg"
   inkscape:version="0.92.4 (5da689c313, 2019-01-14)">
  <metadata
     id="metadata4577">
    <rdf:RDF>
      <cc:Work
         rdf:about="">
        <dc:format>image/svg+xml</dc:format>
        <dc:type
           rdf:resource="http://purl.org/dc/dcmitype/StillImage" />
        <dc:title></dc:title>
      </cc:Work>
    </rdf:RDF>
  </metadata>
  <defs
     id="defs4575" />
  <sodipodi:namedview
     pagecolor="#ffffff"
     bordercolor="#666666"
     borderopacity="1"
     objecttolerance="10"
     gridtolerance="10"
     guidetolerance="10"
     inkscape:pageopacity="0"
     inkscape:pageshadow="2"
     inkscape:window-width="1920"
     inkscape:window-height="1001"
     id="namedview4573"
     showgrid="false"
     inkscape:zoom="0.34570313"
     inkscape:cx="341.33333"
     inkscape:cy="341.33333"
     inkscape:window-x="-9"
     inkscape:window-y="-9"
     inkscape:window-maximized="1"
     inkscape:current-layer="svg4571" />
  <path
     d="m466.976562 0h-451.976562c-8.285156 0-15 6.714844-15 15 0 8.28125 6.714844 15 15 15h74.996094v50.785156l-69.367188 55.496094c-3.558594 2.847656-5.628906 7.15625-5.628906 11.710938v11.34375h179.992188v-11.34375c0-4.554688-2.070313-8.863282-5.628907-11.710938l-69.367187-55.496094v-50.785156h211.992187v50.785156l-69.367187 55.496094c-3.5625 2.847656-5.632813 7.15625-5.632813 11.710938v11.34375h179.992188v-11.34375c0-4.554688-2.070313-8.863282-5.628907-11.710938l-69.367187-55.496094v-50.785156h104.992187c8.269532 0 15 6.726562 15 15v452c0 8.285156 6.714844 15 15 15 8.28125 0 15-6.714844 15-15v-452c0-24.8125-20.1875-45-45-45zm0 0"
     id="path4561"
     style="fill:#000080" />
  <path
     d="m194.992188 441.980469h-179.992188c-8.285156 0-15 6.714843-15 15v40c0 8.28125 6.714844 14.996093 15 14.996093h179.992188c8.285156 0 15-6.714843 15-14.996093v-40c0-8.285157-6.714844-15-15-15zm0 0"
     id="path4563"
     style="fill:#000080" />
  <path
     d="m15 187.921875h179.992188v224.058594h-179.992188zm0 0"
     id="path4565"
     style="fill:#000080" />
  <path
     d="m436.980469 441.980469h-179.992188c-8.28125 0-15 6.714843-15 15v40c0 8.28125 6.71875 14.996093 15 14.996093h179.992188c8.285156 0 15-6.714843 15-14.996093v-40c0-8.285157-6.714844-15-15-15zm0 0"
     id="path4567"
     style="fill:#000080" />
  <path
     d="m256.988281 187.921875h179.992188v224.058594h-179.992188zm0 0"
     id="path4569"
     style="fill:#000080" />
</svg>
