<svg height="462pt" viewBox="-99 0 462 462.824" width="462pt" xmlns="http://www.w3.org/2000/svg"><path d="m264.410156 278.824219h-24v-16h-208v16h-32v16h40v168h16v-27.929688l80-58.175781 80 58.175781v27.929688h16v-168h32zm-208 136.289062v-96.578125l66.402344 48.289063zm93.601563-48.289062 66.398437-48.289063v96.578125zm66.398437-68.070313-80 58.175782-80-58.175782v-3.929687h160zm0 0"/><path d="m104.410156 182.824219c0 17.671875 14.328125 32 32 32 17.675782 0 32-14.328125 32-32 0-12.046875-17.765625-36.097657-32-52.167969-14.222656 16.085938-32 40.167969-32 52.167969zm40 16c0 4.417969-3.578125 8-8 8-13.253906 0-24-10.746094-24-24 0-4.417969 3.582032-8 8-8 4.421875 0 8 3.582031 8 8s3.582032 8 8 8c4.421875 0 8 3.582031 8 8zm0 0"/><path d="m240.410156 102.824219h-208v144h208zm-104 128c-26.496094-.027344-47.972656-21.5-48-48 0-24.585938 37.890625-65 42.210938-69.519531 3.210937-3.167969 8.371094-3.167969 11.582031 0 4.320313 4.519531 42.207031 44.933593 42.207031 69.519531-.023437 26.5-21.5 47.972656-48 48zm0 0"/><path d="m32.410156 70.824219h208v16h-208zm0 0"/><path d="m136.410156 0-97.460937 54.824219h194.925781zm0 0"/></svg>