<?xml version="1.0" encoding="iso-8859-1"?>
<!-- Generator: Adobe Illustrator 19.0.0, SVG Export Plug-In . SVG Version: 6.00 Build 0)  -->
<svg version="1.1" id="Capa_1" xmlns="http://www.w3.org/2000/svg" xmlns:xlink="http://www.w3.org/1999/xlink" x="0px" y="0px"
	 viewBox="0 0 512 512" style="enable-background:new 0 0 512 512;" xml:space="preserve">
<g>
	<g>
		<path d="M376.5,391v30c2.73,0,27.477,0,30,0v-30H376.5z"/>
	</g>
</g>
<g>
	<g>
		<rect x="256.5" y="391" width="30" height="30"/>
	</g>
</g>
<g>
	<g>
		<path d="M488.897,242.948c-4.703-2.666-10.474-2.578-15.117,0.19L346.5,319.501V256c0-5.405-2.9-10.386-7.603-13.052
			s-10.474-2.578-15.117,0.19L196.5,319.501V256c0-5.405-2.9-10.386-7.603-13.052s-10.474-2.578-15.117,0.19l-151,90
			c-4.512,2.71-7.28,7.588-7.28,12.861v75h61V376c0-8.291,6.709-15,15-15h90c8.291,0,15,6.709,15,15v45h30v-45
			c0-8.291,6.709-15,15-15h60c8.291,0,15,6.709,15,15v45h30v-45c0-8.291,6.709-15,15-15h60c8.291,0,15,6.709,15,15v45h60V256
			C496.5,250.595,493.6,245.614,488.897,242.948z"/>
	</g>
</g>
<g>
	<g>
		<path d="M196.5,451v61h285c8.291,0,15-6.709,15-15v-46C490.016,451,198.918,451,196.5,451z"/>
	</g>
</g>
<g>
	<g>
		<rect x="106.5" y="391" width="60" height="121"/>
	</g>
</g>
<g>
	<g>
		<path d="M15.5,451v46c0,8.291,6.709,15,15,15h46v-61H15.5z"/>
	</g>
</g>
<g>
	<g>
		<path d="M241.5,30h-105c-33.137,0-60,26.862-60,60h135c24.853,0,45-20.147,45-45C256.5,36.714,249.784,30,241.5,30z"/>
	</g>
</g>
<g>
	<g>
		<path d="M451.5,0h-105c-33.137,0-60,26.862-60,60h135c24.853,0,45-20.147,45-45C466.5,6.714,459.784,0,451.5,0z"/>
	</g>
</g>
<g>
	<g>
		<path d="M175.989,180H67.01l-12.327,99.606l103.658-62.19c6.546-3.898,13.91-5.88,21.427-6.178L175.989,180z"/>
	</g>
</g>
<g>
	<g>
		<polygon points="168.49,120 74.51,120 70.76,150 172.239,150 		"/>
	</g>
</g>
<g>
	<g>
		<path d="M398.758,253.164L385.989,150H277.01l-11.517,93.124l42.849-25.708c14.301-8.514,31.553-8.401,45.352-0.571
			C367.755,224.828,376.5,239.828,376.5,256v10.518L398.758,253.164z"/>
	</g>
</g>
<g>
	<g>
		<polygon points="378.49,90 284.51,90 280.76,120 382.24,120 		"/>
	</g>
</g>
<g>
</g>
<g>
</g>
<g>
</g>
<g>
</g>
<g>
</g>
<g>
</g>
<g>
</g>
<g>
</g>
<g>
</g>
<g>
</g>
<g>
</g>
<g>
</g>
<g>
</g>
<g>
</g>
<g>
</g>
</svg>
