<?xml version="1.0" encoding="utf-8"?>
<!-- Generator: Adobe Illustrator 21.1.0, SVG Export Plug-In . SVG Version: 6.00 Build 0)  -->
<svg version="1.1" id="Capa_1" xmlns="http://www.w3.org/2000/svg" xmlns:xlink="http://www.w3.org/1999/xlink" x="0px" y="0px"
	 viewBox="0 0 512 512" style="enable-background:new 0 0 512 512;" xml:space="preserve">
<style type="text/css">
	.st0{fill:#84C225;}
</style>
<g>
	<g>
		<path class="st0" d="M376.5,391v30c2.7,0,27.5,0,30,0v-30H376.5z"/>
	</g>
</g>
<g>
	<g>
		<rect x="256.5" y="391" class="st0" width="30" height="30"/>
	</g>
</g>
<g>
	<g>
		<path class="st0" d="M488.9,242.9c-4.7-2.7-10.5-2.6-15.1,0.2l-127.3,76.4V256c0-5.4-2.9-10.4-7.6-13.1s-10.5-2.6-15.1,0.2
			l-127.3,76.4V256c0-5.4-2.9-10.4-7.6-13.1s-10.5-2.6-15.1,0.2l-151,90c-4.5,2.7-7.3,7.6-7.3,12.9v75h61v-45c0-8.3,6.7-15,15-15h90
			c8.3,0,15,6.7,15,15v45h30v-45c0-8.3,6.7-15,15-15h60c8.3,0,15,6.7,15,15v45h30v-45c0-8.3,6.7-15,15-15h60c8.3,0,15,6.7,15,15v45
			h60V256C496.5,250.6,493.6,245.6,488.9,242.9z"/>
	</g>
</g>
<g>
	<g>
		<path class="st0" d="M196.5,451v61h285c8.3,0,15-6.7,15-15v-46C490,451,198.9,451,196.5,451z"/>
	</g>
</g>
<g>
	<g>
		<rect x="106.5" y="391" class="st0" width="60" height="121"/>
	</g>
</g>
<g>
	<g>
		<path class="st0" d="M15.5,451v46c0,8.3,6.7,15,15,15h46v-61H15.5z"/>
	</g>
</g>
<g>
	<g>
		<path class="st0" d="M241.5,30h-105c-33.1,0-60,26.9-60,60h135c24.9,0,45-20.1,45-45C256.5,36.7,249.8,30,241.5,30z"/>
	</g>
</g>
<g>
	<g>
		<path class="st0" d="M451.5,0h-105c-33.1,0-60,26.9-60,60h135c24.9,0,45-20.1,45-45C466.5,6.7,459.8,0,451.5,0z"/>
	</g>
</g>
<g>
	<g>
		<path class="st0" d="M176,180H67l-12.3,99.6l103.7-62.2c6.5-3.9,13.9-5.9,21.4-6.2L176,180z"/>
	</g>
</g>
<g>
	<g>
		<polygon class="st0" points="168.5,120 74.5,120 70.8,150 172.2,150 		"/>
	</g>
</g>
<g>
	<g>
		<path class="st0" d="M398.8,253.2L386,150H277l-11.5,93.1l42.8-25.7c14.3-8.5,31.6-8.4,45.4-0.6c14.1,8,22.8,23,22.8,39.2v10.5
			L398.8,253.2z"/>
	</g>
</g>
<g>
	<g>
		<polygon class="st0" points="378.5,90 284.5,90 280.8,120 382.2,120 		"/>
	</g>
</g>
</svg>
